<svg xmlns="http://www.w3.org/2000/svg" viewBox="0 0 425.84 138.6"><defs><style>.aabad4f2-916e-4418-8103-f02302a3c3a1{fill:#fff;}</style></defs><title>Recurso 1</title><g id="f5d85292-a768-4bde-883a-929cd8c06e86" data-name="Capa 2"><g id="b1523187-8e61-496a-963e-8598a18b0761" data-name="Capa 1"><path class="aabad4f2-916e-4418-8103-f02302a3c3a1" d="M143.49,101.13h2.12v13h-2.12Z"/><path class="aabad4f2-916e-4418-8103-f02302a3c3a1" d="M150.19,101.13h3.59l4,10.81h.29V101.13h2.1v13h-3.49l-4.09-10.81h-.27v10.81h-2.12Z"/><path class="aabad4f2-916e-4418-8103-f02302a3c3a1" d="M163.46,101.13h8.79v2h-3.31v11h-2.08v-11h-3.4Z"/><path class="aabad4f2-916e-4418-8103-f02302a3c3a1" d="M175.57,101.13h7.9v1.93h-5.82v3.64h4.69v1.9h-4.69v3.57h5.82v2h-7.9Z"/><path class="aabad4f2-916e-4418-8103-f02302a3c3a1" d="M192.12,109.56h-2.4v4.56h-2.08v-13h4.67c2.82,0,4.36,1.26,4.36,4.15,0,1.91-.7,3.11-2.07,3.75l2.08,5.09h-2.3l-1.84-4.58Zm.19-6.5h-2.59v4.62h2.63a2.11,2.11,0,0,0,2.16-2.37A2.05,2.05,0,0,0,192.31,103.06Z"/><path class="aabad4f2-916e-4418-8103-f02302a3c3a1" d="M200.79,101.13h3.59l4,10.81h.28V101.13h2.1v13h-3.49l-4.09-10.81h-.26v10.81h-2.13Z"/><path class="aabad4f2-916e-4418-8103-f02302a3c3a1" d="M217.61,101.13h4l3.12,13h-2.11l-.77-2.69h-4.61l-.68,2.69h-2.1Zm.08,8.35h3.77L219.94,103h-.7Z"/><path class="aabad4f2-916e-4418-8103-f02302a3c3a1" d="M227,101.13h8.78v2h-3.3v11h-2.09v-11H227Z"/><path class="aabad4f2-916e-4418-8103-f02302a3c3a1" d="M239,101.13h2.12v13H239Z"/><path class="aabad4f2-916e-4418-8103-f02302a3c3a1" d="M245.07,107.7c0-4.37,1.35-6.8,5.13-6.8s5.14,2.41,5.14,6.8-1.35,6.63-5.14,6.63S245.07,112.11,245.07,107.7Zm8.09,0c0-3.25-.73-4.84-3-4.84s-2.95,1.57-2.95,4.84.71,4.69,2.95,4.69S253.16,111,253.16,107.7Z"/><path class="aabad4f2-916e-4418-8103-f02302a3c3a1" d="M259.43,101.13H263l4,10.81h.29V101.13h2.1v13h-3.49l-4.1-10.81h-.26v10.81h-2.12Z"/><path class="aabad4f2-916e-4418-8103-f02302a3c3a1" d="M276.25,101.13h4l3.11,13h-2.1l-.77-2.69h-4.62l-.67,2.69h-2.1Zm.07,8.35h3.78L278.58,103h-.7Z"/><path class="aabad4f2-916e-4418-8103-f02302a3c3a1" d="M287.06,114.12v-13h2.08v11h4.92v2Z"/><path class="aabad4f2-916e-4418-8103-f02302a3c3a1" d="M306.11,101.13h4l3.11,13h-2.1l-.77-2.69h-4.62l-.67,2.69H303Zm.07,8.35H310L308.44,103h-.7Z"/><path class="aabad4f2-916e-4418-8103-f02302a3c3a1" d="M324.37,103.12s-2.57-.26-3.66-.26c-1.44,0-2.29.54-2.29,1.67s.68,1.55,2.78,2.21c2.61.87,3.61,1.47,3.61,3.64,0,2.73-1.34,4-4.34,4a27.56,27.56,0,0,1-3.94-.4l.11-1.84s2.48.28,3.66.28c1.52,0,2.4-.49,2.4-1.91,0-1-.71-1.39-2.62-2-2.76-.9-3.74-1.73-3.74-3.94,0-2.43,1.54-3.65,4.26-3.65a22.71,22.71,0,0,1,3.85.44Z"/><path class="aabad4f2-916e-4418-8103-f02302a3c3a1" d="M335.94,103.12s-2.58-.26-3.66-.26c-1.45,0-2.29.54-2.29,1.67s.67,1.55,2.77,2.21c2.61.87,3.61,1.47,3.61,3.64,0,2.73-1.33,4-4.34,4a27.56,27.56,0,0,1-3.94-.4l.11-1.84s2.48.28,3.66.28c1.52,0,2.41-.49,2.41-1.91,0-1-.72-1.39-2.63-2-2.76-.9-3.74-1.73-3.74-3.94,0-2.43,1.54-3.65,4.26-3.65a22.71,22.71,0,0,1,3.85.44Z"/><path class="aabad4f2-916e-4418-8103-f02302a3c3a1" d="M339.43,107.7c0-4.37,1.35-6.8,5.12-6.8s5.14,2.41,5.14,6.8-1.35,6.63-5.14,6.63S339.43,112.11,339.43,107.7Zm8.09,0c0-3.25-.74-4.84-3-4.84s-2.95,1.57-2.95,4.84.72,4.69,2.95,4.69S347.52,111,347.52,107.7Z"/><path class="aabad4f2-916e-4418-8103-f02302a3c3a1" d="M361.44,114a27.49,27.49,0,0,1-3.54.38c-3.79,0-4.75-2.31-4.75-6.69,0-4.63,1.18-6.74,4.75-6.74a21.09,21.09,0,0,1,3.56.44l-.07,1.85s-2.22-.26-3.21-.26c-2.24,0-2.85,1.28-2.85,4.71s.52,4.68,2.9,4.68c.89,0,3.16-.25,3.16-.25Z"/><path class="aabad4f2-916e-4418-8103-f02302a3c3a1" d="M365.22,101.13h2.12v13h-2.12Z"/><path class="aabad4f2-916e-4418-8103-f02302a3c3a1" d="M374.06,101.13h4l3.12,13h-2.1l-.77-2.69h-4.62l-.68,2.69h-2.1Zm.07,8.35h3.77L376.38,103h-.69Z"/><path class="aabad4f2-916e-4418-8103-f02302a3c3a1" d="M383.46,101.13h8.78v2h-3.3v11h-2.08v-11h-3.4Z"/><path class="aabad4f2-916e-4418-8103-f02302a3c3a1" d="M395.43,101.13h2.13v13h-2.13Z"/><path class="aabad4f2-916e-4418-8103-f02302a3c3a1" d="M401.52,107.7c0-4.37,1.35-6.8,5.12-6.8s5.14,2.41,5.14,6.8-1.35,6.63-5.14,6.63S401.52,112.11,401.52,107.7Zm8.09,0c0-3.25-.74-4.84-3-4.84s-2.95,1.57-2.95,4.84.72,4.69,2.95,4.69S409.61,111,409.61,107.7Z"/><path class="aabad4f2-916e-4418-8103-f02302a3c3a1" d="M415.88,101.13h3.58l4,10.81h.28V101.13h2.1v13h-3.49l-4.09-10.81H418v10.81h-2.12Z"/><path class="aabad4f2-916e-4418-8103-f02302a3c3a1" d="M143.62,125.4h7.9v1.95h-5.81v4.4h4.69v1.91h-4.69v4.73h-2.09Z"/><path class="aabad4f2-916e-4418-8103-f02302a3c3a1" d="M154.81,132c0-4.37,1.35-6.79,5.12-6.79s5.15,2.4,5.15,6.79-1.36,6.63-5.15,6.63S154.81,136.38,154.81,132Zm8.09,0c0-3.25-.73-4.84-3-4.84S157,128.71,157,132s.71,4.69,2.94,4.69S162.9,135.29,162.9,132Z"/><path class="aabad4f2-916e-4418-8103-f02302a3c3a1" d="M173.65,133.83h-2.4v4.56h-2.08v-13h4.67c2.82,0,4.36,1.26,4.36,4.15,0,1.92-.7,3.12-2.07,3.75l2.08,5.09h-2.3l-1.84-4.58Zm.19-6.49h-2.59V132h2.63a2.11,2.11,0,0,0,2.16-2.36A2,2,0,0,0,173.84,127.34Z"/><path class="aabad4f2-916e-4418-8103-f02302a3c3a1" d="M195.78,127.39s-2.57-.26-3.66-.26c-1.44,0-2.29.54-2.29,1.67s.68,1.56,2.78,2.21c2.61.87,3.61,1.47,3.61,3.65,0,2.72-1.34,3.94-4.34,3.94a27.56,27.56,0,0,1-3.94-.4l.11-1.84s2.48.29,3.66.29c1.52,0,2.4-.49,2.4-1.92,0-1-.71-1.39-2.63-2-2.75-.9-3.73-1.73-3.73-3.94,0-2.42,1.54-3.64,4.26-3.64a23.21,23.21,0,0,1,3.85.43Z"/><path class="aabad4f2-916e-4418-8103-f02302a3c3a1" d="M204.36,136.55c1.73,0,2.57-.64,2.57-2.31V125.4H209v8.84c0,3-1.42,4.32-4.67,4.32s-4.62-1.28-4.62-4.32V125.4h2.11v8.84C201.85,135.91,202.67,136.55,204.36,136.55Z"/><path class="aabad4f2-916e-4418-8103-f02302a3c3a1" d="M221.05,127.39s-2.57-.26-3.66-.26c-1.45,0-2.29.54-2.29,1.67s.67,1.56,2.77,2.21c2.61.87,3.61,1.47,3.61,3.65,0,2.72-1.33,3.94-4.34,3.94a27.56,27.56,0,0,1-3.94-.4l.11-1.84s2.48.29,3.66.29c1.52,0,2.41-.49,2.41-1.92,0-1-.72-1.39-2.63-2-2.76-.9-3.74-1.73-3.74-3.94,0-2.42,1.54-3.64,4.26-3.64a23.21,23.21,0,0,1,3.85.43Z"/><path class="aabad4f2-916e-4418-8103-f02302a3c3a1" d="M223.75,125.4h8.78v2h-3.3v11h-2.08v-11h-3.4Z"/><path class="aabad4f2-916e-4418-8103-f02302a3c3a1" d="M238,125.4h4l3.12,13H243l-.77-2.68h-4.62l-.68,2.68h-2.1Zm.07,8.35h3.77l-1.52-6.51h-.69Z"/><path class="aabad4f2-916e-4418-8103-f02302a3c3a1" d="M248.67,125.4h2.13v13h-2.13Z"/><path class="aabad4f2-916e-4418-8103-f02302a3c3a1" d="M255.38,125.4H259l4,10.81h.28V125.4h2.1v13h-3.49l-4.09-10.81h-.26v10.81h-2.12Z"/><path class="aabad4f2-916e-4418-8103-f02302a3c3a1" d="M272.19,125.4h4l3.12,13h-2.1l-.77-2.68h-4.62l-.68,2.68H269Zm.08,8.35H276l-1.52-6.51h-.69Z"/><path class="aabad4f2-916e-4418-8103-f02302a3c3a1" d="M287.68,125.4c2.25,0,3.92,1,3.92,3.25,0,1.69-.47,2.5-1.5,3.08a2.78,2.78,0,0,1,1.82,3c0,2.59-1.73,3.66-4.09,3.66H283v-13Zm-2.59,1.88v3.66h2.55a1.72,1.72,0,0,0,1.8-1.93,1.64,1.64,0,0,0-1.85-1.73Zm0,5.48v3.74h2.63a1.81,1.81,0,0,0,2-1.92,1.84,1.84,0,0,0-2.06-1.82Z"/><path class="aabad4f2-916e-4418-8103-f02302a3c3a1" d="M296.05,138.39v-13h2.08v11h4.92v2Z"/><path class="aabad4f2-916e-4418-8103-f02302a3c3a1" d="M307,125.4h7.91v1.94H309V131h4.69v1.89H309v3.57h5.82v1.95H307Z"/><path class="aabad4f2-916e-4418-8103-f02302a3c3a1" d="M325,125.4h7.9v1.94h-5.82V131h4.7v1.89h-4.7v3.57h5.82v1.95H325Z"/><path class="aabad4f2-916e-4418-8103-f02302a3c3a1" d="M344.76,138.22a27.73,27.73,0,0,1-3.55.38c-3.79,0-4.75-2.31-4.75-6.68,0-4.64,1.18-6.74,4.75-6.74a21.75,21.75,0,0,1,3.57.43l-.08,1.86s-2.21-.27-3.21-.27c-2.23,0-2.85,1.28-2.85,4.72,0,3.28.52,4.67,2.91,4.67.88,0,3.15-.24,3.15-.24Z"/><path class="aabad4f2-916e-4418-8103-f02302a3c3a1" d="M348,132c0-4.37,1.35-6.79,5.13-6.79s5.14,2.4,5.14,6.79-1.35,6.63-5.14,6.63S348,136.38,348,132Zm8.09,0c0-3.25-.73-4.84-3-4.84s-2.95,1.58-2.95,4.84.71,4.69,2.95,4.69S356.13,135.29,356.13,132Z"/><path class="aabad4f2-916e-4418-8103-f02302a3c3a1" d="M362.4,125.4H366l4,10.81h.29V125.4h2.1v13h-3.49l-4.1-10.81h-.26v10.81H362.4Z"/><path class="aabad4f2-916e-4418-8103-f02302a3c3a1" d="M376.46,132c0-4.37,1.35-6.79,5.12-6.79s5.15,2.4,5.15,6.79-1.36,6.63-5.15,6.63S376.46,136.38,376.46,132Zm8.09,0c0-3.25-.73-4.84-3-4.84s-2.94,1.58-2.94,4.84.71,4.69,2.94,4.69S384.55,135.29,384.55,132Z"/><path class="aabad4f2-916e-4418-8103-f02302a3c3a1" d="M390.82,125.4h3.47l2.95,10.16,3-10.16h3.42v13h-2.08V127.86h-.27l-2.94,10h-2.18l-3-10h-.28v10.53h-2.08Z"/><path class="aabad4f2-916e-4418-8103-f02302a3c3a1" d="M413.14,138.39h-2.09v-5.56l-3.9-7.43h2.34l2.59,5.2,2.58-5.2H417l-3.86,7.43Z"/><path class="aabad4f2-916e-4418-8103-f02302a3c3a1" d="M91.14,88.64l-4.48-4.49a37.49,37.49,0,0,0,17.5-1.08,6.12,6.12,0,0,1,0,1.21A7.4,7.4,0,0,1,92,89.37h0A5.5,5.5,0,0,1,91.14,88.64Z"/><path class="aabad4f2-916e-4418-8103-f02302a3c3a1" d="M87.9,28l-4.49,4.49a37.26,37.26,0,0,0,.41-9.95A36.7,36.7,0,0,0,82.33,15a6.22,6.22,0,0,1,1.22,0,7.4,7.4,0,0,1,5.08,12.14h0A5.09,5.09,0,0,1,87.9,28Z"/><path class="aabad4f2-916e-4418-8103-f02302a3c3a1" d="M91.14,31.23l-4.48,4.49a37.26,37.26,0,0,1,10-.41,36.7,36.7,0,0,1,7.55,1.49,6.22,6.22,0,0,0,0-1.22A7.4,7.4,0,0,0,92,30.5h0A5.57,5.57,0,0,0,91.14,31.23Z"/><path class="aabad4f2-916e-4418-8103-f02302a3c3a1" d="M30.49,28,35,32.47A37.49,37.49,0,0,1,36.06,15a6.22,6.22,0,0,0-1.22,0,7.4,7.4,0,0,0-5.08,12.14h0A4.62,4.62,0,0,0,30.49,28Z"/><path class="aabad4f2-916e-4418-8103-f02302a3c3a1" d="M85.61,64.1A13.12,13.12,0,0,0,98.73,77.22h5.47A25.07,25.07,0,0,0,92.48,66.11,25.35,25.35,0,0,0,85.61,64.1Z"/><path class="aabad4f2-916e-4418-8103-f02302a3c3a1" d="M102.08,57.64H95.74A37.43,37.43,0,0,0,107.35,44.5a7,7,0,0,1,.86.86,7.4,7.4,0,0,1-5,12.18h0A5.38,5.38,0,0,1,102.08,57.64Z"/><path class="aabad4f2-916e-4418-8103-f02302a3c3a1" d="M102.08,62.23H95.74a37.43,37.43,0,0,1,11.61,13.14,7,7,0,0,0,.86-.86,7.4,7.4,0,0,0-5-12.18h0A5.38,5.38,0,0,0,102.08,62.23Z"/><path class="aabad4f2-916e-4418-8103-f02302a3c3a1" d="M53.14,26.65A25.11,25.11,0,0,0,42,14.93V20.4A13.11,13.11,0,0,0,55.15,33.52,25,25,0,0,0,53.14,26.65Z"/><path class="aabad4f2-916e-4418-8103-f02302a3c3a1" d="M63.36,33.52A13.12,13.12,0,0,0,76.48,20.4V14.93A25.07,25.07,0,0,0,65.37,26.65,25.35,25.35,0,0,0,63.36,33.52Z"/><path class="aabad4f2-916e-4418-8103-f02302a3c3a1" d="M56.9,17.05v6.34a37.56,37.56,0,0,0-6.75-7.33,36.74,36.74,0,0,0-6.39-4.28,7,7,0,0,1,.86-.86,7.4,7.4,0,0,1,12.18,5h0A5.31,5.31,0,0,1,56.9,17.05Z"/><path class="aabad4f2-916e-4418-8103-f02302a3c3a1" d="M61.49,17.05v6.34a37.56,37.56,0,0,1,6.75-7.33,36.74,36.74,0,0,1,6.39-4.28,7,7,0,0,0-.86-.86,7.4,7.4,0,0,0-12.18,5h0A5.31,5.31,0,0,0,61.49,17.05Z"/><path class="aabad4f2-916e-4418-8103-f02302a3c3a1" d="M87.9,91.88,83.41,87.4a37.26,37.26,0,0,1,.41,9.95,36.7,36.7,0,0,1-1.49,7.55,6.22,6.22,0,0,0,1.22,0,7.4,7.4,0,0,0,5.08-12.14h0A5.57,5.57,0,0,0,87.9,91.88Z"/><path class="aabad4f2-916e-4418-8103-f02302a3c3a1" d="M27.25,31.23l4.48,4.49a37.26,37.26,0,0,0-9.95-.41,36.7,36.7,0,0,0-7.55,1.49,6.22,6.22,0,0,1,0-1.22A7.4,7.4,0,0,1,26.37,30.5h0A5.57,5.57,0,0,1,27.25,31.23Z"/><path class="aabad4f2-916e-4418-8103-f02302a3c3a1" d="M30.49,91.88,35,87.4a37.49,37.49,0,0,0,1.08,17.5,6.22,6.22,0,0,1-1.22,0,7.4,7.4,0,0,1-5.08-12.14h0A5,5,0,0,1,30.49,91.88Z"/><path class="aabad4f2-916e-4418-8103-f02302a3c3a1" d="M27.25,88.64l4.48-4.49a37.49,37.49,0,0,1-17.5-1.08,6.12,6.12,0,0,0,0,1.21,7.48,7.48,0,0,0,2,4.53,7.41,7.41,0,0,0,10.12.56h0A5.5,5.5,0,0,0,27.25,88.64Z"/><path class="aabad4f2-916e-4418-8103-f02302a3c3a1" d="M65.25,93.22a25.11,25.11,0,0,0,11.1,11.72V99.47A13.11,13.11,0,0,0,63.24,86.35,25.35,25.35,0,0,0,65.25,93.22Z"/><path class="aabad4f2-916e-4418-8103-f02302a3c3a1" d="M55,86.35A13.12,13.12,0,0,0,41.91,99.47v5.47A25.07,25.07,0,0,0,53,93.22,25.35,25.35,0,0,0,55,86.35Z"/><path class="aabad4f2-916e-4418-8103-f02302a3c3a1" d="M61.49,102.82V96.48a37.71,37.71,0,0,0,13.14,11.61,7,7,0,0,1-.86.86,7.4,7.4,0,0,1-12.18-5h0A5.38,5.38,0,0,1,61.49,102.82Z"/><path class="aabad4f2-916e-4418-8103-f02302a3c3a1" d="M56.9,102.82V96.48a37.71,37.71,0,0,1-13.14,11.61,7,7,0,0,0,.86.86,7.4,7.4,0,0,0,12.18-5h0A5.38,5.38,0,0,0,56.9,102.82Z"/><path class="aabad4f2-916e-4418-8103-f02302a3c3a1" d="M25.91,66a25.11,25.11,0,0,0-11.72,11.1h5.47A13.11,13.11,0,0,0,32.78,64,24.66,24.66,0,0,0,25.91,66Z"/><path class="aabad4f2-916e-4418-8103-f02302a3c3a1" d="M32.78,55.77A13.11,13.11,0,0,0,19.66,42.65H14.19A25.07,25.07,0,0,0,25.91,53.76,25.35,25.35,0,0,0,32.78,55.77Z"/><path class="aabad4f2-916e-4418-8103-f02302a3c3a1" d="M16.31,62.23h6.34A37.84,37.84,0,0,0,15.32,69,37.32,37.32,0,0,0,11,75.37a7,7,0,0,1-.86-.86,7.4,7.4,0,0,1,5-12.18h0A5.38,5.38,0,0,1,16.31,62.23Z"/><path class="aabad4f2-916e-4418-8103-f02302a3c3a1" d="M16.31,57.64h6.34A37.43,37.43,0,0,1,11,44.5a7,7,0,0,0-.86.86,7.4,7.4,0,0,0,5,12.18h0A5.38,5.38,0,0,0,16.31,57.64Z"/><path class="aabad4f2-916e-4418-8103-f02302a3c3a1" d="M92.48,53.88A25.07,25.07,0,0,0,104.2,42.77H98.73A13.12,13.12,0,0,0,85.61,55.89,25.35,25.35,0,0,0,92.48,53.88Z"/><path class="aabad4f2-916e-4418-8103-f02302a3c3a1" d="M59.2,118.39A59.2,59.2,0,1,1,118.39,59.2,59.26,59.26,0,0,1,59.2,118.39Zm0-115.7A56.51,56.51,0,1,0,115.7,59.2,56.57,56.57,0,0,0,59.2,2.69Z"/><path class="aabad4f2-916e-4418-8103-f02302a3c3a1" d="M251.07,31H285v8.3H260V54.88h20.13V63H260v15.3h25v8.37H251.07Z"/><path class="aabad4f2-916e-4418-8103-f02302a3c3a1" d="M142.6,31h9.1V86.7h-9.1Z"/><path class="aabad4f2-916e-4418-8103-f02302a3c3a1" d="M172.06,31h17.13L202.55,86.7h-9l-3.3-11.51H170.45l-2.9,11.51h-9Zm.32,35.81h16.17L182,38.9h-3Z"/><path class="aabad4f2-916e-4418-8103-f02302a3c3a1" d="M213.88,58.73a18.29,18.29,0,0,1-.6-3.41c-.32-4.13.43-11.23,4.89-14.85,1.68-1.37,4.26-2,7.58-2,4.67,0,15.7,1.13,15.7,1.13l.32-7.65a99.34,99.34,0,0,0-16.5-1.85C213.6,30.05,207,35.28,207,45.66,207,52.11,208.94,55.81,213.88,58.73Z"/><path class="aabad4f2-916e-4418-8103-f02302a3c3a1" d="M234.71,57.65a72.86,72.86,0,0,0-6.86-2.57l-1.41-.45a32.66,32.66,0,0,1,.83,4.39,35.24,35.24,0,0,1,.24,5c3.3,1.23,5.26,2.42,6.16,4.14.92-1.69.85-3.62.76-5.72a17,17,0,0,1,.25-4.67Z"/><path class="aabad4f2-916e-4418-8103-f02302a3c3a1" d="M220.49,87c1.55-1.8,2.08-3.93,2.65-6.18.13-.52.26-1,.4-1.57-5.22-.06-15.25-1.2-15.25-1.2l-.48,7.89S214,87,220.11,87.41Z"/><path class="aabad4f2-916e-4418-8103-f02302a3c3a1" d="M223.8,49.7A32.19,32.19,0,0,1,226.38,59a33.86,33.86,0,0,1-.82,12.44l-5.62-4.68c-7.43-6.2-8-17.43-1.33-25.1A31.65,31.65,0,0,1,223.8,49.7Z"/><path class="aabad4f2-916e-4418-8103-f02302a3c3a1" d="M221.34,87.85c4.18-4.87,1.48-11.92,9.07-15.37s4.11-9.29,5.28-14.12c.7.33,6.7,3.14,7.55,8.85,1.35,9-2,16.92-8.08,19.11S221.34,87.85,221.34,87.85Z"/></g></g></svg>