<svg xmlns="http://www.w3.org/2000/svg" viewBox="0 0 240.35 78.23"><defs><style>.b338d57b-8c7e-4cff-ab30-eed9f43fcb9d{fill:#006072;}.f16be303-0d1d-4842-a4ce-b15380a191e0{fill:#007934;}.e3ab2a8c-5828-448e-a9b0-bd522ccc31c9{fill:#80bc00;}</style></defs><title>IASE</title><g id="b11052b7-e33c-4655-b386-76b32684f1c7" data-name="Capa 2"><g id="b49d26f0-f430-4b77-9c08-0041f661e3da" data-name="Capa 1"><path class="b338d57b-8c7e-4cff-ab30-eed9f43fcb9d" d="M81,57.08h1.2v7.33H81Z"/><path class="b338d57b-8c7e-4cff-ab30-eed9f43fcb9d" d="M84.77,57.08h2l2.26,6.1h.16v-6.1H90.4v7.33h-2l-2.31-6.1H86v6.1h-1.2Z"/><path class="b338d57b-8c7e-4cff-ab30-eed9f43fcb9d" d="M92.26,57.08h5v1.14H95.35v6.19H94.18V58.22H92.26Z"/><path class="b338d57b-8c7e-4cff-ab30-eed9f43fcb9d" d="M99.09,57.08h4.46v1.09h-3.28v2.06h2.65V61.3h-2.65v2h3.28v1.1H99.09Z"/><path class="b338d57b-8c7e-4cff-ab30-eed9f43fcb9d" d="M108.44,61.84h-1.36v2.57h-1.17V57.08h2.63c1.59,0,2.46.71,2.46,2.34a2.09,2.09,0,0,1-1.16,2.12L111,64.41h-1.3l-1-2.58Zm.1-3.67h-1.46v2.61h1.48a1.19,1.19,0,0,0,1.22-1.34A1.15,1.15,0,0,0,108.54,58.17Z"/><path class="b338d57b-8c7e-4cff-ab30-eed9f43fcb9d" d="M113.33,57.08h2l2.26,6.1h.16v-6.1H119v7.33h-2l-2.31-6.1h-.15v6.1h-1.2Z"/><path class="b338d57b-8c7e-4cff-ab30-eed9f43fcb9d" d="M122.82,57.08h2.26l1.76,7.33h-1.19l-.43-1.51h-2.61l-.38,1.51H121Zm.05,4.71H125l-.86-3.67h-.39Z"/><path class="b338d57b-8c7e-4cff-ab30-eed9f43fcb9d" d="M128.13,57.08h5v1.14h-1.87v6.19h-1.17V58.22h-1.92Z"/><path class="b338d57b-8c7e-4cff-ab30-eed9f43fcb9d" d="M134.89,57.08h1.2v7.33h-1.2Z"/><path class="b338d57b-8c7e-4cff-ab30-eed9f43fcb9d" d="M138.32,60.79c0-2.47.76-3.84,2.89-3.84s2.91,1.36,2.91,3.84-.77,3.74-2.91,3.74S138.32,63.28,138.32,60.79Zm4.57,0c0-1.84-.42-2.74-1.68-2.74s-1.66.89-1.66,2.74.4,2.65,1.66,2.65S142.89,62.66,142.89,60.79Z"/><path class="b338d57b-8c7e-4cff-ab30-eed9f43fcb9d" d="M146.43,57.08h2l2.26,6.1h.16v-6.1h1.18v7.33h-2l-2.31-6.1h-.15v6.1h-1.19Z"/><path class="b338d57b-8c7e-4cff-ab30-eed9f43fcb9d" d="M155.92,57.08h2.26l1.75,7.33h-1.18l-.44-1.51h-2.6l-.38,1.51h-1.19Zm0,4.71h2.13l-.86-3.67h-.39Z"/><path class="b338d57b-8c7e-4cff-ab30-eed9f43fcb9d" d="M162,64.41V57.08h1.18V63.3H166v1.11Z"/><path class="b338d57b-8c7e-4cff-ab30-eed9f43fcb9d" d="M172.77,57.08H175l1.76,7.33H175.6l-.43-1.51h-2.61l-.38,1.51H171Zm0,4.71H175l-.86-3.67h-.4Z"/><path class="b338d57b-8c7e-4cff-ab30-eed9f43fcb9d" d="M183.08,58.2s-1.45-.15-2.06-.15c-.82,0-1.3.31-1.3,1s.38.88,1.57,1.25c1.47.48,2,.82,2,2,0,1.54-.76,2.23-2.45,2.23a15.3,15.3,0,0,1-2.23-.23l.07-1s1.39.15,2.06.15c.86,0,1.36-.27,1.36-1.08,0-.57-.4-.78-1.48-1.11-1.56-.51-2.11-1-2.11-2.22S179.42,57,181,57a12.62,12.62,0,0,1,2.17.25Z"/><path class="b338d57b-8c7e-4cff-ab30-eed9f43fcb9d" d="M189.61,58.2s-1.45-.15-2.07-.15c-.81,0-1.29.31-1.29,1s.38.88,1.57,1.25c1.47.48,2,.82,2,2,0,1.54-.75,2.23-2.45,2.23a15.27,15.27,0,0,1-2.22-.23l.06-1s1.4.15,2.07.15c.86,0,1.35-.27,1.35-1.08,0-.57-.4-.78-1.48-1.11-1.56-.51-2.11-1-2.11-2.22s.87-2.06,2.41-2.06a12.78,12.78,0,0,1,2.17.25Z"/><path class="b338d57b-8c7e-4cff-ab30-eed9f43fcb9d" d="M191.58,60.79c0-2.47.76-3.84,2.89-3.84s2.9,1.36,2.9,3.84-.76,3.74-2.9,3.74S191.58,63.28,191.58,60.79Zm4.56,0c0-1.84-.41-2.74-1.67-2.74s-1.66.89-1.66,2.74.4,2.65,1.66,2.65S196.14,62.66,196.14,60.79Z"/><path class="b338d57b-8c7e-4cff-ab30-eed9f43fcb9d" d="M204,64.32a15.9,15.9,0,0,1-2,.21c-2.14,0-2.68-1.31-2.68-3.78S200,57,202,57a12,12,0,0,1,2,.25l-.05,1s-1.25-.14-1.81-.14c-1.26,0-1.61.72-1.61,2.65s.3,2.64,1.64,2.64c.5,0,1.78-.13,1.78-.13Z"/><path class="b338d57b-8c7e-4cff-ab30-eed9f43fcb9d" d="M206.13,57.08h1.2v7.33h-1.2Z"/><path class="b338d57b-8c7e-4cff-ab30-eed9f43fcb9d" d="M211.12,57.08h2.26l1.76,7.33H214l-.43-1.51h-2.61l-.38,1.51h-1.19Zm0,4.71h2.12l-.85-3.67H212Z"/><path class="b338d57b-8c7e-4cff-ab30-eed9f43fcb9d" d="M216.43,57.08h5v1.14h-1.87v6.19h-1.17V58.22h-1.92Z"/><path class="b338d57b-8c7e-4cff-ab30-eed9f43fcb9d" d="M223.19,57.08h1.2v7.33h-1.2Z"/><path class="b338d57b-8c7e-4cff-ab30-eed9f43fcb9d" d="M226.62,60.79c0-2.47.76-3.84,2.89-3.84s2.91,1.36,2.91,3.84-.77,3.74-2.91,3.74S226.62,63.28,226.62,60.79Zm4.57,0c0-1.84-.42-2.74-1.68-2.74s-1.66.89-1.66,2.74.4,2.65,1.66,2.65S231.19,62.66,231.19,60.79Z"/><path class="b338d57b-8c7e-4cff-ab30-eed9f43fcb9d" d="M234.73,57.08h2l2.26,6.1h.16v-6.1h1.18v7.33h-2l-2.31-6.1h-.15v6.1h-1.19Z"/><path class="b338d57b-8c7e-4cff-ab30-eed9f43fcb9d" d="M81.06,70.78h4.46v1.1H82.24v2.48h2.65v1.08H82.24v2.67H81.06Z"/><path class="b338d57b-8c7e-4cff-ab30-eed9f43fcb9d" d="M87.38,74.49c0-2.47.76-3.84,2.89-3.84s2.9,1.36,2.9,3.84-.76,3.74-2.9,3.74S87.38,77,87.38,74.49Zm4.56,0c0-1.84-.41-2.74-1.67-2.74s-1.67.89-1.67,2.74.41,2.65,1.67,2.65S91.94,76.36,91.94,74.49Z"/><path class="b338d57b-8c7e-4cff-ab30-eed9f43fcb9d" d="M98,75.54H96.66v2.57H95.48V70.78h2.64c1.59,0,2.46.71,2.46,2.34a2.09,2.09,0,0,1-1.17,2.12l1.18,2.87H99.28l-1-2.58Zm.11-3.67H96.66v2.61h1.48a1.19,1.19,0,0,0,1.22-1.34A1.16,1.16,0,0,0,98.12,71.87Z"/><path class="b338d57b-8c7e-4cff-ab30-eed9f43fcb9d" d="M110.5,71.9s-1.45-.15-2.06-.15c-.82,0-1.3.31-1.3,1s.39.88,1.57,1.25c1.48.48,2,.82,2,2,0,1.54-.76,2.23-2.45,2.23a15.49,15.49,0,0,1-2.23-.23l.07-1s1.4.15,2.06.15c.86,0,1.36-.27,1.36-1.08,0-.57-.4-.78-1.48-1.11-1.56-.51-2.11-1-2.11-2.22s.87-2.06,2.4-2.06a12.81,12.81,0,0,1,2.18.25Z"/><path class="b338d57b-8c7e-4cff-ab30-eed9f43fcb9d" d="M115.34,77.07c1,0,1.46-.36,1.46-1.3v-5H118v5c0,1.71-.8,2.44-2.64,2.44s-2.6-.73-2.6-2.44v-5h1.18v5C113.92,76.71,114.39,77.07,115.34,77.07Z"/><path class="b338d57b-8c7e-4cff-ab30-eed9f43fcb9d" d="M124.76,71.9s-1.45-.15-2.06-.15c-.82,0-1.3.31-1.3,1s.39.88,1.57,1.25c1.47.48,2,.82,2,2,0,1.54-.76,2.23-2.45,2.23a15.3,15.3,0,0,1-2.23-.23l.07-1s1.4.15,2.06.15c.86,0,1.36-.27,1.36-1.08,0-.57-.4-.78-1.48-1.11-1.56-.51-2.11-1-2.11-2.22s.87-2.06,2.4-2.06a12.62,12.62,0,0,1,2.17.25Z"/><path class="b338d57b-8c7e-4cff-ab30-eed9f43fcb9d" d="M126.29,70.78h5v1.14h-1.87v6.19H128.2V71.92h-1.91Z"/><path class="b338d57b-8c7e-4cff-ab30-eed9f43fcb9d" d="M134.33,70.78h2.25l1.76,7.33h-1.18l-.44-1.51h-2.6l-.39,1.51h-1.18Zm0,4.71h2.13l-.86-3.67h-.39Z"/><path class="b338d57b-8c7e-4cff-ab30-eed9f43fcb9d" d="M140.36,70.78h1.19v7.33h-1.19Z"/><path class="b338d57b-8c7e-4cff-ab30-eed9f43fcb9d" d="M144.14,70.78h2l2.26,6.1h.16v-6.1h1.18v7.33h-2L145.48,72h-.15v6.1h-1.19Z"/><path class="b338d57b-8c7e-4cff-ab30-eed9f43fcb9d" d="M153.63,70.78h2.26l1.76,7.33h-1.19L156,76.6h-2.6L153,78.11h-1.19Zm0,4.71h2.13l-.86-3.67h-.39Z"/><path class="b338d57b-8c7e-4cff-ab30-eed9f43fcb9d" d="M162.37,70.78c1.27,0,2.21.56,2.21,1.83a1.69,1.69,0,0,1-.84,1.74,1.57,1.57,0,0,1,1,1.69c0,1.47-1,2.07-2.31,2.07h-2.72V70.78Zm-1.46,1.06V73.9h1.44a1,1,0,0,0,1-1.09.93.93,0,0,0-1.05-1Zm0,3.09V77h1.48A1,1,0,0,0,163.54,76a1,1,0,0,0-1.17-1Z"/><path class="b338d57b-8c7e-4cff-ab30-eed9f43fcb9d" d="M167.09,78.11V70.78h1.18V77h2.78v1.11Z"/><path class="b338d57b-8c7e-4cff-ab30-eed9f43fcb9d" d="M173.25,70.78h4.46v1.09h-3.28v2.06h2.64V75h-2.64v2h3.28v1.1h-4.46Z"/><path class="b338d57b-8c7e-4cff-ab30-eed9f43fcb9d" d="M183.45,70.78h4.46v1.09h-3.28v2.06h2.65V75h-2.65v2h3.28v1.1h-4.46Z"/><path class="b338d57b-8c7e-4cff-ab30-eed9f43fcb9d" d="M194.59,78a15.21,15.21,0,0,1-2,.22c-2.14,0-2.68-1.31-2.68-3.78s.67-3.8,2.68-3.8a12,12,0,0,1,2,.25l0,1s-1.25-.14-1.81-.14c-1.26,0-1.61.72-1.61,2.65s.3,2.64,1.64,2.64c.5,0,1.78-.13,1.78-.13Z"/><path class="b338d57b-8c7e-4cff-ab30-eed9f43fcb9d" d="M196.44,74.49c0-2.47.76-3.84,2.89-3.84s2.91,1.36,2.91,3.84-.77,3.74-2.91,3.74S196.44,77,196.44,74.49Zm4.57,0c0-1.84-.42-2.74-1.68-2.74s-1.66.89-1.66,2.74.4,2.65,1.66,2.65S201,76.36,201,74.49Z"/><path class="b338d57b-8c7e-4cff-ab30-eed9f43fcb9d" d="M204.54,70.78h2l2.25,6.1H209v-6.1h1.19v7.33h-2L205.89,72h-.15v6.1h-1.2Z"/><path class="b338d57b-8c7e-4cff-ab30-eed9f43fcb9d" d="M212.48,74.49c0-2.47.76-3.84,2.89-3.84s2.9,1.36,2.9,3.84-.76,3.74-2.9,3.74S212.48,77,212.48,74.49Zm4.57,0c0-1.84-.42-2.74-1.68-2.74s-1.66.89-1.66,2.74.4,2.65,1.66,2.65S217.05,76.36,217.05,74.49Z"/><path class="b338d57b-8c7e-4cff-ab30-eed9f43fcb9d" d="M220.58,70.78h2l1.67,5.73,1.67-5.73h1.93v7.33h-1.18V72.17h-.15l-1.66,5.64h-1.23l-1.67-5.64h-.16v5.94h-1.18Z"/><path class="b338d57b-8c7e-4cff-ab30-eed9f43fcb9d" d="M233.18,78.11H232V75l-2.2-4.19h1.32l1.47,2.93L234,70.78h1.32L233.18,75Z"/><path class="f16be303-0d1d-4842-a4ce-b15380a191e0" d="M51.44,50,48.91,47.5a21.58,21.58,0,0,0,5.62.23,22.15,22.15,0,0,0,4.26-.84,3.86,3.86,0,0,1,0,.68,4.17,4.17,0,0,1-6.85,2.87h0A3.89,3.89,0,0,1,51.44,50Z"/><path class="f16be303-0d1d-4842-a4ce-b15380a191e0" d="M49.61,15.79l-2.53,2.54a21.6,21.6,0,0,0,.23-5.62,20.73,20.73,0,0,0-.84-4.26,3.86,3.86,0,0,1,.68,0,4.11,4.11,0,0,1,2.56,1.14A4.19,4.19,0,0,1,50,15.3h0A2.67,2.67,0,0,1,49.61,15.79Z"/><path class="f16be303-0d1d-4842-a4ce-b15380a191e0" d="M51.44,17.63l-2.53,2.53a21.2,21.2,0,0,1,9.88.61,4,4,0,0,0,0-.69,4.18,4.18,0,0,0-6.85-2.87h0A2.72,2.72,0,0,0,51.44,17.63Z"/><path class="f16be303-0d1d-4842-a4ce-b15380a191e0" d="M17.21,15.79l2.53,2.54a21.2,21.2,0,0,1,.61-9.88,3.86,3.86,0,0,0-.68,0,4.14,4.14,0,0,0-2.56,1.14,4.18,4.18,0,0,0-.31,5.71h0A3.13,3.13,0,0,0,17.21,15.79Z"/><path class="f16be303-0d1d-4842-a4ce-b15380a191e0" d="M48.32,36.18a7.4,7.4,0,0,0,7.4,7.4h3.09a14.05,14.05,0,0,0-6.61-6.26A13.85,13.85,0,0,0,48.32,36.18Z"/><path class="f16be303-0d1d-4842-a4ce-b15380a191e0" d="M57.62,32.53H54a21,21,0,0,0,4.13-3.81,20.8,20.8,0,0,0,2.42-3.6,2.73,2.73,0,0,1,.48.48,4.17,4.17,0,0,1-2.81,6.88h0A3.39,3.39,0,0,1,57.62,32.53Z"/><path class="f16be303-0d1d-4842-a4ce-b15380a191e0" d="M57.62,35.12H54a21.32,21.32,0,0,1,4.13,3.81,20.88,20.88,0,0,1,2.42,3.61,3.17,3.17,0,0,0,.48-.49,4.16,4.16,0,0,0-2.81-6.87h0A2.73,2.73,0,0,0,57.62,35.12Z"/><path class="f16be303-0d1d-4842-a4ce-b15380a191e0" d="M30,15a14.18,14.18,0,0,0-2.21-3.42,14.36,14.36,0,0,0-4.05-3.2v3.1a7.4,7.4,0,0,0,7.4,7.4A14.19,14.19,0,0,0,30,15Z"/><path class="f16be303-0d1d-4842-a4ce-b15380a191e0" d="M35.76,18.92a7.4,7.4,0,0,0,7.4-7.4V8.42a14.18,14.18,0,0,0-4,3.2A13.93,13.93,0,0,0,36.9,15,14.19,14.19,0,0,0,35.76,18.92Z"/><path class="f16be303-0d1d-4842-a4ce-b15380a191e0" d="M32.12,9.62V13.2a21.64,21.64,0,0,0-3.81-4.13A21.27,21.27,0,0,0,24.7,6.65a3.7,3.7,0,0,1,.48-.49,4.26,4.26,0,0,1,2.62-1A4.19,4.19,0,0,1,32.06,9h0A2.73,2.73,0,0,1,32.12,9.62Z"/><path class="f16be303-0d1d-4842-a4ce-b15380a191e0" d="M34.71,9.62V13.2a21.11,21.11,0,0,1,7.41-6.55,3.7,3.7,0,0,0-.48-.49,4.24,4.24,0,0,0-2.62-1A4.19,4.19,0,0,0,34.76,9h0A2.73,2.73,0,0,0,34.71,9.62Z"/><path class="e3ab2a8c-5828-448e-a9b0-bd522ccc31c9" d="M49.61,51.86l-2.53-2.53A21.56,21.56,0,0,1,47.31,55a20.73,20.73,0,0,1-.84,4.26,3.86,3.86,0,0,0,.68,0A4.18,4.18,0,0,0,50,52.35h0A2.72,2.72,0,0,0,49.61,51.86Z"/><path class="e3ab2a8c-5828-448e-a9b0-bd522ccc31c9" d="M15.38,17.63l2.53,2.53A21.2,21.2,0,0,0,8,20.77a4,4,0,0,1,0-.69,4.22,4.22,0,0,1,1.14-2.55,4.18,4.18,0,0,1,5.71-.32h0A2.72,2.72,0,0,1,15.38,17.63Z"/><path class="e3ab2a8c-5828-448e-a9b0-bd522ccc31c9" d="M17.21,51.86l2.53-2.53a21.2,21.2,0,0,0,.61,9.88,3.86,3.86,0,0,1-.68,0,4.25,4.25,0,0,1-2.56-1.14,4.19,4.19,0,0,1-.31-5.72h0A3.2,3.2,0,0,1,17.21,51.86Z"/><path class="e3ab2a8c-5828-448e-a9b0-bd522ccc31c9" d="M15.38,50l2.53-2.53a21.58,21.58,0,0,1-5.62.23A22.15,22.15,0,0,1,8,46.89a3.86,3.86,0,0,0,0,.68,4.25,4.25,0,0,0,1.14,2.56,4.18,4.18,0,0,0,5.71.31h0A3.89,3.89,0,0,0,15.38,50Z"/><path class="e3ab2a8c-5828-448e-a9b0-bd522ccc31c9" d="M36.83,52.61A13.56,13.56,0,0,0,39.05,56a14.05,14.05,0,0,0,4.05,3.2V56.14a7.4,7.4,0,0,0-7.41-7.4A14.23,14.23,0,0,0,36.83,52.61Z"/><path class="e3ab2a8c-5828-448e-a9b0-bd522ccc31c9" d="M31.06,48.74a7.4,7.4,0,0,0-7.4,7.4v3.09A14.19,14.19,0,0,0,27.71,56a14.16,14.16,0,0,0,3.35-7.29Z"/><path class="e3ab2a8c-5828-448e-a9b0-bd522ccc31c9" d="M34.71,58V54.45a21,21,0,0,0,3.8,4.14A21.88,21.88,0,0,0,42.12,61a3.63,3.63,0,0,1-.48.48,4.13,4.13,0,0,1-2.62,1,4.19,4.19,0,0,1-4.26-3.81h0A2.76,2.76,0,0,1,34.71,58Z"/><path class="e3ab2a8c-5828-448e-a9b0-bd522ccc31c9" d="M32.12,58V54.45a21.4,21.4,0,0,1-3.81,4.14A21.88,21.88,0,0,1,24.7,61a3.63,3.63,0,0,0,.48.48,4.18,4.18,0,0,0,6.88-2.81h0A2.76,2.76,0,0,0,32.12,58Z"/><path class="e3ab2a8c-5828-448e-a9b0-bd522ccc31c9" d="M14.62,37.25A14.05,14.05,0,0,0,8,43.51H11.1a7.4,7.4,0,0,0,7.4-7.4A14,14,0,0,0,14.62,37.25Z"/><path class="e3ab2a8c-5828-448e-a9b0-bd522ccc31c9" d="M18.5,31.48a7.4,7.4,0,0,0-7.4-7.41H8a14.15,14.15,0,0,0,6.61,6.27A14.3,14.3,0,0,0,18.5,31.48Z"/><path class="e3ab2a8c-5828-448e-a9b0-bd522ccc31c9" d="M9.2,35.12h3.59a21.09,21.09,0,0,0-4.14,3.81,20.88,20.88,0,0,0-2.42,3.61,3.7,3.7,0,0,1-.48-.49,4.1,4.1,0,0,1-1-2.61,4.17,4.17,0,0,1,3.81-4.26h0A2.73,2.73,0,0,1,9.2,35.12Z"/><path class="e3ab2a8c-5828-448e-a9b0-bd522ccc31c9" d="M9.2,32.53h3.59a21.25,21.25,0,0,1-6.56-7.41,3.11,3.11,0,0,0-.48.48,4.12,4.12,0,0,0-1,2.61,4.18,4.18,0,0,0,3.81,4.27h0A3.39,3.39,0,0,0,9.2,32.53Z"/><path class="f16be303-0d1d-4842-a4ce-b15380a191e0" d="M52.2,30.41a14.15,14.15,0,0,0,6.61-6.27H55.72a7.4,7.4,0,0,0-7.4,7.41A14.19,14.19,0,0,0,52.2,30.41Z"/><path class="b338d57b-8c7e-4cff-ab30-eed9f43fcb9d" d="M33.41,66.82A33.41,33.41,0,1,1,66.82,33.41,33.45,33.45,0,0,1,33.41,66.82Zm0-65.3A31.89,31.89,0,1,0,65.3,33.41,31.93,31.93,0,0,0,33.41,1.52Z"/><path class="b338d57b-8c7e-4cff-ab30-eed9f43fcb9d" d="M141.71,17.48h19.12v4.68H146.75V31h11.36v4.58H146.75V44.2h14.08v4.72H141.71Z"/><path class="b338d57b-8c7e-4cff-ab30-eed9f43fcb9d" d="M80.49,17.51h5.13V48.94H80.49Z"/><path class="b338d57b-8c7e-4cff-ab30-eed9f43fcb9d" d="M97.11,17.51h9.67l7.54,31.43h-5.08l-1.87-6.5H96.2l-1.63,6.5H89.48Zm.18,20.21h9.13L102.74,22h-1.68Z"/><path class="e3ab2a8c-5828-448e-a9b0-bd522ccc31c9" d="M120.72,33.15a10.29,10.29,0,0,1-.34-1.92c-.18-2.34.24-6.34,2.76-8.39a6.74,6.74,0,0,1,4.28-1.15c2.63,0,8.86.63,8.86.63l.18-4.31A55.83,55.83,0,0,0,127.15,17c-6.59,0-10.31,2.95-10.31,8.81C116.84,29.41,117.93,31.5,120.72,33.15Z"/><path class="e3ab2a8c-5828-448e-a9b0-bd522ccc31c9" d="M132.47,32.54a40,40,0,0,0-3.87-1.45l-.79-.26a19,19,0,0,1,.46,2.48,19.23,19.23,0,0,1,.14,2.84c1.86.69,3,1.37,3.48,2.34a6.23,6.23,0,0,0,.43-3.23,9.76,9.76,0,0,1,.13-2.64Z"/><path class="e3ab2a8c-5828-448e-a9b0-bd522ccc31c9" d="M124.45,49.08a8,8,0,0,0,1.49-3.49c.07-.29.15-.59.23-.88-2.94,0-8.61-.68-8.61-.68l-.27,4.45s3.47.61,6.94.85Z"/><path class="f16be303-0d1d-4842-a4ce-b15380a191e0" d="M126.31,28.05a18,18,0,0,1,1.46,5.27,19.1,19.1,0,0,1-.46,7l-3.17-2.65a9.86,9.86,0,0,1-.75-14.16A18,18,0,0,1,126.31,28.05Z"/><path class="f16be303-0d1d-4842-a4ce-b15380a191e0" d="M124.93,49.58c2.36-2.75.83-6.73,5.12-8.67s2.32-5.24,3-8c.39.18,3.78,1.77,4.26,5,.76,5.11-1.11,9.55-4.56,10.79A21.22,21.22,0,0,1,124.93,49.58Z"/></g></g></svg>